<?xml version="1.0" encoding="UTF-8" standalone="no"?>
<!DOCTYPE svg PUBLIC "-//W3C//DTD SVG 1.1//EN"
"http://www.w3.org/Graphics/SVG/1.1/DTD/svg11.dtd">
<!-- Generated by graphviz version 2.36.0 (20140111.2315)
  -->
  <!-- Title: G Pages: 1 -->
  <svg width="2205pt" height="460pt"
  viewBox="0.00 0.00 2205.00 460.00" xmlns="http://www.w3.org/2000/svg" xmlns:xlink="http://www.w3.org/1999/xlink">
  <g id="graph0" class="graph" transform="scale(1 1) rotate(0) translate(4 456)">
  <title>G</title>
  <polygon fill="white" stroke="none" points="-4,4 -4,-456 2201,-456 2201,4 -4,4"/>
  <g id="clust1" class="cluster"><title>cluster_AbstractController</title>
  <polygon fill="none" stroke="black" points="576,-291 576,-444 966,-444 966,-291 576,-291"/>
  <text text-anchor="middle" x="771" y="-428.8" font-family="Times,serif" font-size="14.00">AbstractController</text>
  </g>
  <g id="clust2" class="cluster"><title>cluster_AbstractController_Helpers</title>
  <polygon fill="none" stroke="black" points="584,-299 584,-413 958,-413 958,-299 584,-299"/>
  <text text-anchor="middle" x="771" y="-397.8" font-family="Times,serif" font-size="14.00">Helpers</text>
  </g>
  <g id="clust3" class="cluster"><title>cluster_AbstractController_Helpers_ClassMethods</title>
  <polygon fill="none" stroke="black" points="592,-307 592,-382 950,-382 950,-307 592,-307"/>
  <text text-anchor="middle" x="771" y="-366.8" font-family="Times,serif" font-size="14.00">ClassMethods</text>
  </g>
  <g id="clust4" class="cluster"><title>cluster_ApplicationController</title>
  <polygon fill="none" stroke="black" points="200,-177 200,-252 1177,-252 1177,-177 200,-177"/>
  <text text-anchor="middle" x="688.5" y="-236.8" font-family="Times,serif" font-size="14.00">ApplicationController</text>
  </g>
  <g id="clust5" class="cluster"><title>cluster_ActionController</title>
  <polygon fill="none" stroke="black" points="8,-291 8,-444 568,-444 568,-291 8,-291"/>
  <text text-anchor="middle" x="288" y="-428.8" font-family="Times,serif" font-size="14.00">ActionController</text>
  </g>
  <g id="clust6" class="cluster"><title>cluster_ActionController_Helpers</title>
  <polygon fill="none" stroke="black" points="16,-299 16,-413 284,-413 284,-299 16,-299"/>
  <text text-anchor="middle" x="150" y="-397.8" font-family="Times,serif" font-size="14.00">Helpers</text>
  </g>
  <g id="clust7" class="cluster"><title>cluster_ActionController_Helpers_ClassMethods</title>
  <polygon fill="none" stroke="black" points="24,-307 24,-382 276,-382 276,-307 24,-307"/>
  <text text-anchor="middle" x="150" y="-366.8" font-family="Times,serif" font-size="14.00">ClassMethods</text>
  </g>
  <g id="clust11" class="cluster"><title>cluster_ActionController_ParamsWrapper</title>
  <polygon fill="none" stroke="black" points="292,-299 292,-413 430,-413 430,-299 292,-299"/>
  <text text-anchor="middle" x="361" y="-397.8" font-family="Times,serif" font-size="14.00">ParamsWrapper</text>
  </g>
  <g id="clust12" class="cluster"><title>cluster_ActionController_ParamsWrapper_ClassMethods</title>
  <polygon fill="none" stroke="black" points="300,-307 300,-382 422,-382 422,-307 300,-307"/>
  <text text-anchor="middle" x="361" y="-366.8" font-family="Times,serif" font-size="14.00">ClassMethods</text>
  </g>
  <g id="clust14" class="cluster"><title>cluster_ActionController_Metal</title>
  <polygon fill="none" stroke="black" points="438,-307 438,-382 560,-382 560,-307 438,-307"/>
  <text text-anchor="middle" x="499" y="-366.8" font-family="Times,serif" font-size="14.00">Metal</text>
  </g>
  <g id="clust8" class="cluster"><title>cluster_ActiveSupport</title>
  <polygon fill="none" stroke="black" points="1346,-291 1346,-444 1544,-444 1544,-291 1346,-291"/>
  <text text-anchor="middle" x="1445" y="-428.8" font-family="Times,serif" font-size="14.00">ActiveSupport</text>
  </g>
  <g id="clust9" class="cluster"><title>cluster_ActiveSupport_Callbacks</title>
  <polygon fill="none" stroke="black" points="1354,-299 1354,-413 1536,-413 1536,-299 1354,-299"/>
  <text text-anchor="middle" x="1445" y="-397.8" font-family="Times,serif" font-size="14.00">Callbacks</text>
  </g>
  <g id="clust10" class="cluster"><title>cluster_ActiveSupport_Callbacks_ClassMethods</title>
  <polygon fill="none" stroke="black" points="1362,-307 1362,-382 1528,-382 1528,-307 1362,-307"/>
  <text text-anchor="middle" x="1445" y="-366.8" font-family="Times,serif" font-size="14.00">ClassMethods</text>
  </g>
  <g id="clust13" class="cluster"><title>cluster_UsersController</title>
  <polygon fill="none" stroke="black" points="1185,-177 1185,-252 1725,-252 1725,-177 1185,-177"/>
  <text text-anchor="middle" x="1455" y="-236.8" font-family="Times,serif" font-size="14.00">UsersController</text>
  </g>
  <g id="clust15" class="cluster"><title>cluster_DependencyGrapher</title>
  <polygon fill="brown" stroke="black" points="1496,-16 1496,-130 1837,-130 1837,-16 1496,-16"/>
  <text text-anchor="middle" x="1666.5" y="-114.8" font-family="Times,serif" font-size="14.00">DependencyGrapher</text>
  </g>
  <g id="clust16" class="cluster"><title>cluster_DependencyGrapher_Logger</title>
  <polygon fill="brown" stroke="black" points="1504,-24 1504,-99 1829,-99 1829,-24 1504,-24"/>
  <text text-anchor="middle" x="1666.5" y="-83.8" font-family="Times,serif" font-size="14.00">Logger</text>
  </g>
  <g id="clust17" class="cluster"><title>cluster_UserTest</title>
  <polygon fill="none" stroke="black" points="1588,-307 1588,-382 1718,-382 1718,-307 1588,-307"/>
  <text text-anchor="middle" x="1653" y="-366.8" font-family="Times,serif" font-size="14.00">UserTest</text>
  </g>
  <g id="clust18" class="cluster"><title>cluster_User</title>
  <polygon fill="none" stroke="black" points="1877,-169 1877,-283 2130,-283 2130,-169 1877,-169"/>
  <text text-anchor="middle" x="2003.5" y="-267.8" font-family="Times,serif" font-size="14.00">User</text>
  </g>
  <g id="clust19" class="cluster"><title>cluster_User_GeneratedAssociationMethods</title>
  <polygon fill="none" stroke="black" points="1885,-177 1885,-252 2122,-252 2122,-177 1885,-177"/>
  <text text-anchor="middle" x="2003.5" y="-236.8" font-family="Times,serif" font-size="14.00">GeneratedAssociationMethods</text>
  </g>
  <g id="clust20" class="cluster"><title>cluster_ActiveRecord</title>
  <polygon fill="none" stroke="black" points="1851,-8 1851,-161 2189,-161 2189,-8 1851,-8"/>
  <text text-anchor="middle" x="2020" y="-145.8" font-family="Times,serif" font-size="14.00">ActiveRecord</text>
  </g>
  <g id="clust21" class="cluster"><title>cluster_ActiveRecord_Associations</title>
  <polygon fill="none" stroke="black" points="1859,-16 1859,-130 2181,-130 2181,-16 1859,-16"/>
  <text text-anchor="middle" x="2020" y="-114.8" font-family="Times,serif" font-size="14.00">Associations</text>
  </g>
  <g id="clust22" class="cluster"><title>cluster_ActiveRecord_Associations_CollectionAssociation</title>
  <polygon fill="none" stroke="black" points="2001,-24 2001,-99 2173,-99 2173,-24 2001,-24"/>
  <text text-anchor="middle" x="2087" y="-83.8" font-family="Times,serif" font-size="14.00">CollectionAssociation</text>
  </g>
  <g id="clust23" class="cluster"><title>cluster_User(id: integer, email: string, name: string, enc...</title>
      <polygon fill="none" stroke="black" points="1726,-307 1726,-382 2114,-382 2114,-307 1726,-307"/>
      <text text-anchor="middle" x="1920" y="-366.8" font-family="Times,serif" font-size="14.00">User(id: integer, email: string, name: string, enc...</text>
        </g>
        <g id="clust24" class="cluster"><title>cluster_GetLogger</title>
        <polygon fill="#c1cdcd" stroke="black" points="1741,-177 1741,-252 1834,-252 1834,-177 1741,-177"/>
        <text text-anchor="middle" x="1787.5" y="-236.8" font-family="Times,serif" font-size="14.00">GetLogger</text>
        </g>
        <!-- AbstractController::Helpers::ClassMethodsadd_template_helper -->
        <g id="node1" class="node"><title>AbstractController::Helpers::ClassMethodsadd_template_helper</title>
        <ellipse fill="none" stroke="black" cx="833" cy="-333" rx="108.31" ry="18"/>
        <text text-anchor="middle" x="833" y="-329.3" font-family="Times,serif" font-size="14.00">add_template_helper</text>
        </g>
        <!-- ApplicationController_helpers -->
        <g id="node2" class="node"><title>ApplicationController_helpers</title>
        <ellipse fill="none" stroke="black" cx="833" cy="-203" rx="50.0684" ry="18"/>
        <text text-anchor="middle" x="833" y="-199.3" font-family="Times,serif" font-size="14.00">_helpers</text>
        </g>
        <!-- AbstractController::Helpers::ClassMethodsadd_template_helper&#45;&gt;ApplicationController_helpers -->
        <g id="edge1" class="edge"><title>AbstractController::Helpers::ClassMethodsadd_template_helper&#45;&gt;ApplicationController_helpers</title>
        <path fill="none" stroke="dimgrey" d="M804.786,-315.528C789.783,-293.037 788.521,-252.607 801,-227.097"/>
        <polygon fill="dimgrey" stroke="dimgrey" points="804.056,-228.807 806.219,-218.435 798.06,-225.194 804.056,-228.807"/>
        </g>
      <!-- AbstractController::Helpers::ClassMethodsadd_template_helper&#45;&gt;ApplicationController_helpers -->
      <g id="edge3" class="edge"><title>AbstractController::Helpers::ClassMethodsadd_template_helper&#45;&gt;ApplicationController_helpers</title>
      <path fill="none" stroke="dimgrey" d="M814.075,-315.266C804.466,-293.371 803.433,-254.798 810.976,-229.318"/>
      <polygon fill="dimgrey" stroke="dimgrey" points="814.261,-230.526 814.434,-219.932 807.693,-228.106 814.261,-230.526"/>
      </g>
      <!-- AbstractController::Helpers::ClassMethodsadd_template_helper&#45;&gt;ApplicationController_helpers -->
      <g id="edge4" class="edge"><title>AbstractController::Helpers::ClassMethodsadd_template_helper&#45;&gt;ApplicationController_helpers</title>
      <path fill="none" stroke="dimgrey" d="M823.48,-315.003C818.841,-293.581 818.257,-256.502 821.729,-231.14"/>
      <polygon fill="dimgrey" stroke="dimgrey" points="825.215,-231.517 823.465,-221.068 818.317,-230.328 825.215,-231.517"/>
      </g>
      <!-- AbstractController::Helpers::ClassMethodsadd_template_helper&#45;&gt;ApplicationController_helpers -->
      <g id="edge5" class="edge"><title>AbstractController::Helpers::ClassMethodsadd_template_helper&#45;&gt;ApplicationController_helpers</title>
      <path fill="none" stroke="dimgrey" d="M833,-314.737C833,-293.361 833,-256.691 833,-231.442"/>
      <polygon fill="dimgrey" stroke="dimgrey" points="836.5,-231.398 833,-221.398 829.5,-231.398 836.5,-231.398"/>
      </g>
      <!-- AbstractController::Helpers::ClassMethodsadd_template_helper&#45;&gt;ApplicationController_helpers -->
      <g id="edge6" class="edge"><title>AbstractController::Helpers::ClassMethodsadd_template_helper&#45;&gt;ApplicationController_helpers</title>
      <path fill="none" stroke="dimgrey" d="M842.52,-315.003C847.159,-293.581 847.743,-256.502 844.271,-231.14"/>
      <polygon fill="dimgrey" stroke="dimgrey" points="847.683,-230.328 842.535,-221.068 840.785,-231.517 847.683,-230.328"/>
      </g>
      <!-- AbstractController::Helpers::ClassMethodsadd_template_helper&#45;&gt;ApplicationController_helpers -->
      <g id="edge7" class="edge"><title>AbstractController::Helpers::ClassMethodsadd_template_helper&#45;&gt;ApplicationController_helpers</title>
      <path fill="none" stroke="dimgrey" d="M851.925,-315.266C861.534,-293.371 862.567,-254.798 855.024,-229.318"/>
      <polygon fill="dimgrey" stroke="dimgrey" points="858.307,-228.106 851.566,-219.932 851.739,-230.526 858.307,-228.106"/>
      </g>
      <!-- AbstractController::Helpers::ClassMethodsadd_template_helper&#45;&gt;ApplicationController_helpers -->
      <g id="edge8" class="edge"><title>AbstractController::Helpers::ClassMethodsadd_template_helper&#45;&gt;ApplicationController_helpers</title>
      <path fill="none" stroke="dimgrey" d="M861.214,-315.528C876.217,-293.037 877.479,-252.607 865,-227.097"/>
      <polygon fill="dimgrey" stroke="dimgrey" points="867.94,-225.194 859.781,-218.435 861.944,-228.807 867.94,-225.194"/>
      </g>
      <!-- UsersController_helpers -->
      <g id="node10" class="node"><title>UsersController_helpers</title>
      <ellipse fill="none" stroke="black" cx="1243" cy="-203" rx="50.0684" ry="18"/>
      <text text-anchor="middle" x="1243" y="-199.3" font-family="Times,serif" font-size="14.00">_helpers</text>
      </g>
      <!-- AbstractController::Helpers::ClassMethodsadd_template_helper&#45;&gt;UsersController_helpers -->
      <g id="edge18" class="edge"><title>AbstractController::Helpers::ClassMethodsadd_template_helper&#45;&gt;UsersController_helpers</title>
      <path fill="none" stroke="dimgrey" d="M933.629,-326.159C1021.1,-319.587 1140.03,-306.603 1181,-283 1202.36,-270.698 1219.03,-247.894 1229.68,-229.937"/>
      <polygon fill="dimgrey" stroke="dimgrey" points="1232.82,-231.498 1234.7,-221.07 1226.73,-228.052 1232.82,-231.498"/>
      </g>
      <!-- ActionController::Helpers::ClassMethodsall_application_helpers -->
      <g id="node3" class="node"><title>ActionController::Helpers::ClassMethodsall_application_helpers</title>
      <ellipse fill="none" stroke="black" cx="150" cy="-333" rx="117.935" ry="18"/>
      <text text-anchor="middle" x="150" y="-329.3" font-family="Times,serif" font-size="14.00">all_application_helpers</text>
      </g>
      <!-- ApplicationControllerhelpers_path -->
      <g id="node4" class="node"><title>ApplicationControllerhelpers_path</title>
      <ellipse fill="none" stroke="black" cx="279" cy="-203" rx="71.2405" ry="18"/>
      <text text-anchor="middle" x="279" y="-199.3" font-family="Times,serif" font-size="14.00">helpers_path</text>
      </g>
      <!-- ActionController::Helpers::ClassMethodsall_application_helpers&#45;&gt;ApplicationControllerhelpers_path -->
      <g id="edge2" class="edge"><title>ActionController::Helpers::ClassMethodsall_application_helpers&#45;&gt;ApplicationControllerhelpers_path</title>
      <path fill="none" stroke="dimgrey" d="M167.13,-315.003C189.711,-292.597 229.556,-253.061 255.095,-227.72"/>
      <polygon fill="dimgrey" stroke="dimgrey" points="257.576,-230.189 262.209,-220.661 252.645,-225.22 257.576,-230.189"/>
      </g>
      <!-- ActiveSupport::Callbacks::ClassMethodsget_callbacks -->
      <g id="node5" class="node"><title>ActiveSupport::Callbacks::ClassMethodsget_callbacks</title>
      <ellipse fill="none" stroke="black" cx="1445" cy="-333" rx="74.6146" ry="18"/>
      <text text-anchor="middle" x="1445" y="-329.3" font-family="Times,serif" font-size="14.00">get_callbacks</text>
      </g>
      <!-- ApplicationController_process_action_callbacks -->
      <g id="node6" class="node"><title>ApplicationController_process_action_callbacks</title>
      <ellipse fill="none" stroke="black" cx="1035" cy="-203" rx="133.333" ry="18"/>
      <text text-anchor="middle" x="1035" y="-199.3" font-family="Times,serif" font-size="14.00">_process_action_callbacks</text>
      </g>
      <!-- ActiveSupport::Callbacks::ClassMethodsget_callbacks&#45;&gt;ApplicationController_process_action_callbacks -->
      <g id="edge9" class="edge"><title>ActiveSupport::Callbacks::ClassMethodsget_callbacks&#45;&gt;ApplicationController_process_action_callbacks</title>
      <path fill="none" stroke="dimgrey" d="M1372.17,-329.234C1298.5,-324.217 1198.32,-311.39 1118,-283 1079.47,-269.381 1038.83,-246.612 1020.95,-229.008"/>
      <polygon fill="dimgrey" stroke="dimgrey" points="1023.21,-226.259 1014.1,-220.843 1017.84,-230.755 1023.21,-226.259"/>
      </g>
      <!-- ActiveSupport::Callbacks::ClassMethodsget_callbacks&#45;&gt;ApplicationController_process_action_callbacks -->
      <g id="edge10" class="edge"><title>ActiveSupport::Callbacks::ClassMethodsget_callbacks&#45;&gt;ApplicationController_process_action_callbacks</title>
      <path fill="none" stroke="dimgrey" d="M1372.9,-328.387C1306.14,-322.842 1212.15,-309.914 1136,-283 1096.83,-269.156 1055.49,-245.857 1034.86,-228.139"/>
      <polygon fill="dimgrey" stroke="dimgrey" points="1037.23,-225.555 1027.58,-221.173 1032.39,-230.614 1037.23,-225.555"/>
      </g>
      <!-- ActiveSupport::Callbacks::ClassMethodsget_callbacks&#45;&gt;ApplicationController_process_action_callbacks -->
      <g id="edge11" class="edge"><title>ActiveSupport::Callbacks::ClassMethodsget_callbacks&#45;&gt;ApplicationController_process_action_callbacks</title>
      <path fill="none" stroke="dimgrey" d="M1374.12,-327.324C1313.08,-321.263 1225.64,-308.322 1154,-283 1114.31,-268.972 1072.38,-245.234 1048.71,-227.433"/>
      <polygon fill="dimgrey" stroke="dimgrey" points="1050.85,-224.666 1040.85,-221.173 1046.49,-230.141 1050.85,-224.666"/>
      </g>
      <!-- ActiveSupport::Callbacks::ClassMethodsget_callbacks&#45;&gt;ApplicationController_process_action_callbacks -->
      <g id="edge12" class="edge"><title>ActiveSupport::Callbacks::ClassMethodsget_callbacks&#45;&gt;ApplicationController_process_action_callbacks</title>
      <path fill="none" stroke="dimgrey" d="M1376.21,-326.065C1319.88,-319.544 1239.03,-306.691 1172,-283 1131.72,-268.762 1089.13,-244.523 1062.16,-226.64"/>
      <polygon fill="dimgrey" stroke="dimgrey" points="1063.88,-223.574 1053.64,-220.843 1059.94,-229.362 1063.88,-223.574"/>
      </g>
      <!-- ActiveSupport::Callbacks::ClassMethodsget_callbacks&#45;&gt;ApplicationController_process_action_callbacks -->
      <g id="edge13" class="edge"><title>ActiveSupport::Callbacks::ClassMethodsget_callbacks&#45;&gt;ApplicationController_process_action_callbacks</title>
      <path fill="none" stroke="dimgrey" d="M1379.16,-324.627C1326.81,-317.723 1252.41,-305.06 1190,-283 1148.95,-268.489 1105.5,-243.59 1074.93,-225.618"/>
      <polygon fill="dimgrey" stroke="dimgrey" points="1076.66,-222.576 1066.27,-220.515 1073.11,-228.607 1076.66,-222.576"/>
      </g>
      <!-- ActiveSupport::Callbacks::ClassMethodsget_callbacks&#45;&gt;ApplicationController_process_action_callbacks -->
      <g id="edge14" class="edge"><title>ActiveSupport::Callbacks::ClassMethodsget_callbacks&#45;&gt;ApplicationController_process_action_callbacks</title>
      <path fill="none" stroke="dimgrey" d="M1383.04,-323.04C1334.13,-315.846 1265.91,-303.467 1208,-283 1166.22,-268.232 1121.96,-242.705 1087.42,-224.671"/>
      <polygon fill="dimgrey" stroke="dimgrey" points="1088.89,-221.494 1078.4,-220.028 1085.69,-227.717 1088.89,-221.494"/>
      </g>
      <!-- ActiveSupport::Callbacks::ClassMethodsget_callbacks&#45;&gt;ApplicationController_process_action_callbacks -->
      <g id="edge20" class="edge"><title>ActiveSupport::Callbacks::ClassMethodsget_callbacks&#45;&gt;ApplicationController_process_action_callbacks</title>
      <path fill="none" stroke="dimgrey" d="M1387.93,-321.357C1342.09,-313.969 1279.62,-301.953 1226,-283 1183.49,-267.973 1138.4,-241.806 1099.5,-223.729"/>
      <polygon fill="dimgrey" stroke="dimgrey" points="1100.82,-220.484 1090.27,-219.547 1097.93,-226.861 1100.82,-220.484"/>
      </g>
      <!-- ActiveSupport::Callbacks::ClassMethodsget_callbacks&#45;&gt;ApplicationController_process_action_callbacks -->
      <g id="edge21" class="edge"><title>ActiveSupport::Callbacks::ClassMethodsget_callbacks&#45;&gt;ApplicationController_process_action_callbacks</title>
      <path fill="none" stroke="dimgrey" d="M1394.55,-319.745C1351.43,-312.261 1293.88,-300.632 1244,-283 1200.49,-267.622 1154.3,-240.578 1110.38,-222.475"/>
      <polygon fill="dimgrey" stroke="dimgrey" points="1111.63,-219.206 1101.05,-218.756 1109.04,-225.709 1111.63,-219.206"/>
      </g>
      <!-- UsersController_process_action_callbacks -->
      <g id="node13" class="node"><title>UsersController_process_action_callbacks</title>
      <ellipse fill="none" stroke="black" cx="1445" cy="-203" rx="133.333" ry="18"/>
      <text text-anchor="middle" x="1445" y="-199.3" font-family="Times,serif" font-size="14.00">_process_action_callbacks</text>
      </g>
      <!-- ActiveSupport::Callbacks::ClassMethodsget_callbacks&#45;&gt;UsersController_process_action_callbacks -->
      <g id="edge22" class="edge"><title>ActiveSupport::Callbacks::ClassMethodsget_callbacks&#45;&gt;UsersController_process_action_callbacks</title>
      <path fill="none" stroke="dimgrey" d="M1404.83,-317.566C1380.54,-295.761 1377.75,-254.178 1396.47,-227.835"/>
      <polygon fill="dimgrey" stroke="dimgrey" points="1399.16,-230.074 1402.97,-220.187 1393.82,-225.541 1399.16,-230.074"/>
      </g>
      <!-- ActiveSupport::Callbacks::ClassMethodsget_callbacks&#45;&gt;UsersController_process_action_callbacks -->
      <g id="edge23" class="edge"><title>ActiveSupport::Callbacks::ClassMethodsget_callbacks&#45;&gt;UsersController_process_action_callbacks</title>
      <path fill="none" stroke="dimgrey" d="M1412.91,-316.56C1395.14,-294.91 1392.99,-255.273 1406.48,-229.283"/>
      <polygon fill="dimgrey" stroke="dimgrey" points="1409.51,-231.033 1411.9,-220.711 1403.59,-227.292 1409.51,-231.033"/>
      </g>
      <!-- ActiveSupport::Callbacks::ClassMethodsget_callbacks&#45;&gt;UsersController_process_action_callbacks -->
      <g id="edge24" class="edge"><title>ActiveSupport::Callbacks::ClassMethodsget_callbacks&#45;&gt;UsersController_process_action_callbacks</title>
      <path fill="none" stroke="dimgrey" d="M1421.63,-315.789C1409.47,-294.195 1407.99,-255.739 1417.2,-230.05"/>
      <polygon fill="dimgrey" stroke="dimgrey" points="1420.41,-231.453 1421.26,-220.892 1414.01,-228.62 1420.41,-231.453"/>
      </g>
      <!-- ActiveSupport::Callbacks::ClassMethodsget_callbacks&#45;&gt;UsersController_process_action_callbacks -->
      <g id="edge25" class="edge"><title>ActiveSupport::Callbacks::ClassMethodsget_callbacks&#45;&gt;UsersController_process_action_callbacks</title>
      <path fill="none" stroke="dimgrey" d="M1430.81,-315.266C1423.75,-293.825 1422.86,-256.392 1428.14,-230.92"/>
      <polygon fill="dimgrey" stroke="dimgrey" points="1431.55,-231.705 1430.67,-221.146 1424.77,-229.948 1431.55,-231.705"/>
      </g>
      <!-- ActiveSupport::Callbacks::ClassMethodsget_callbacks&#45;&gt;UsersController_process_action_callbacks -->
      <g id="edge26" class="edge"><title>ActiveSupport::Callbacks::ClassMethodsget_callbacks&#45;&gt;UsersController_process_action_callbacks</title>
      <path fill="none" stroke="dimgrey" d="M1440.24,-315.003C1437.92,-293.581 1437.63,-256.502 1439.36,-231.14"/>
      <polygon fill="dimgrey" stroke="dimgrey" points="1442.86,-231.331 1440.23,-221.068 1435.89,-230.73 1442.86,-231.331"/>
      </g>
      <!-- ActiveSupport::Callbacks::ClassMethodsget_callbacks&#45;&gt;UsersController_process_action_callbacks -->
      <g id="edge27" class="edge"><title>ActiveSupport::Callbacks::ClassMethodsget_callbacks&#45;&gt;UsersController_process_action_callbacks</title>
      <path fill="none" stroke="dimgrey" d="M1449.76,-315.003C1452.08,-293.581 1452.37,-256.502 1450.64,-231.14"/>
      <polygon fill="dimgrey" stroke="dimgrey" points="1454.11,-230.73 1449.77,-221.068 1447.14,-231.331 1454.11,-230.73"/>
      </g>
      <!-- ActiveSupport::Callbacks::ClassMethodsget_callbacks&#45;&gt;UsersController_process_action_callbacks -->
      <g id="edge28" class="edge"><title>ActiveSupport::Callbacks::ClassMethodsget_callbacks&#45;&gt;UsersController_process_action_callbacks</title>
      <path fill="none" stroke="dimgrey" d="M1459.19,-315.266C1466.25,-293.825 1467.14,-256.392 1461.86,-230.92"/>
      <polygon fill="dimgrey" stroke="dimgrey" points="1465.23,-229.948 1459.33,-221.146 1458.45,-231.705 1465.23,-229.948"/>
      </g>
      <!-- ActiveSupport::Callbacks::ClassMethodsget_callbacks&#45;&gt;UsersController_process_action_callbacks -->
      <g id="edge29" class="edge"><title>ActiveSupport::Callbacks::ClassMethodsget_callbacks&#45;&gt;UsersController_process_action_callbacks</title>
      <path fill="none" stroke="dimgrey" d="M1468.37,-315.789C1480.53,-294.195 1482.01,-255.739 1472.8,-230.05"/>
      <polygon fill="dimgrey" stroke="dimgrey" points="1475.99,-228.62 1468.74,-220.892 1469.59,-231.453 1475.99,-228.62"/>
      </g>
      <!-- ActiveSupport::Callbacks::ClassMethodsget_callbacks&#45;&gt;UsersController_process_action_callbacks -->
      <g id="edge30" class="edge"><title>ActiveSupport::Callbacks::ClassMethodsget_callbacks&#45;&gt;UsersController_process_action_callbacks</title>
      <path fill="none" stroke="dimgrey" d="M1477.09,-316.56C1494.86,-294.91 1497.01,-255.273 1483.52,-229.283"/>
      <polygon fill="dimgrey" stroke="dimgrey" points="1486.41,-227.292 1478.1,-220.711 1480.49,-231.033 1486.41,-227.292"/>
      </g>
      <!-- ActiveSupport::Callbacks::ClassMethodsget_callbacks&#45;&gt;UsersController_process_action_callbacks -->
      <g id="edge31" class="edge"><title>ActiveSupport::Callbacks::ClassMethodsget_callbacks&#45;&gt;UsersController_process_action_callbacks</title>
      <path fill="none" stroke="dimgrey" d="M1485.17,-317.566C1509.46,-295.761 1512.25,-254.178 1493.53,-227.835"/>
      <polygon fill="dimgrey" stroke="dimgrey" points="1496.18,-225.541 1487.03,-220.187 1490.84,-230.074 1496.18,-225.541"/>
      </g>
      <!-- ActionController::ParamsWrapper::ClassMethodsinherited -->
      <g id="node7" class="node"><title>ActionController::ParamsWrapper::ClassMethodsinherited</title>
      <ellipse fill="none" stroke="black" cx="361" cy="-333" rx="52.9443" ry="18"/>
      <text text-anchor="middle" x="361" y="-329.3" font-family="Times,serif" font-size="14.00">inherited</text>
      </g>
      <!-- ApplicationController_wrapper_options -->
      <g id="node8" class="node"><title>ApplicationController_wrapper_options</title>
      <ellipse fill="none" stroke="black" cx="462" cy="-203" rx="93.3873" ry="18"/>
      <text text-anchor="middle" x="462" y="-199.3" font-family="Times,serif" font-size="14.00">_wrapper_options</text>
      </g>
      <!-- ActionController::ParamsWrapper::ClassMethodsinherited&#45;&gt;ApplicationController_wrapper_options -->
      <g id="edge15" class="edge"><title>ActionController::ParamsWrapper::ClassMethodsinherited&#45;&gt;ApplicationController_wrapper_options</title>
      <path fill="none" stroke="dimgrey" d="M369.652,-315.003C384.691,-292.912 415.026,-254.169 436.966,-228.797"/>
      <polygon fill="dimgrey" stroke="dimgrey" points="439.789,-230.888 443.765,-221.068 434.532,-226.265 439.789,-230.888"/>
      </g>
      <!-- ActionController::ParamsWrapper::ClassMethodsinherited&#45;&gt;ApplicationController_wrapper_options -->
      <g id="edge16" class="edge"><title>ActionController::ParamsWrapper::ClassMethodsinherited&#45;&gt;ApplicationController_wrapper_options</title>
      <path fill="none" stroke="dimgrey" d="M378.465,-315.789C398,-294.125 428.775,-255.489 447.182,-229.801"/>
      <polygon fill="dimgrey" stroke="dimgrey" points="450.265,-231.502 453.139,-221.304 444.533,-227.484 450.265,-231.502"/>
      </g>
      <!-- AbstractController::Helpers::ClassMethodsinherited -->
      <g id="node9" class="node"><title>AbstractController::Helpers::ClassMethodsinherited</title>
      <ellipse fill="none" stroke="black" cx="653" cy="-333" rx="52.9443" ry="18"/>
      <text text-anchor="middle" x="653" y="-329.3" font-family="Times,serif" font-size="14.00">inherited</text>
      </g>
      <!-- AbstractController::Helpers::ClassMethodsinherited&#45;&gt;ApplicationController_helpers -->
      <g id="edge17" class="edge"><title>AbstractController::Helpers::ClassMethodsinherited&#45;&gt;ApplicationController_helpers</title>
      <path fill="none" stroke="dimgrey" d="M672.137,-316.078C683.803,-307.24 699.424,-296.875 715,-291 739.348,-281.817 750.537,-296.136 773,-283 794.016,-270.71 810.117,-247.905 820.323,-229.945"/>
      <polygon fill="dimgrey" stroke="dimgrey" points="823.441,-231.537 825.118,-221.076 817.283,-228.208 823.441,-231.537"/>
      </g>
      <!-- ActionController::Metalinherited -->
      <g id="node11" class="node"><title>ActionController::Metalinherited</title>
      <ellipse fill="none" stroke="black" cx="499" cy="-333" rx="52.9443" ry="18"/>
      <text text-anchor="middle" x="499" y="-329.3" font-family="Times,serif" font-size="14.00">inherited</text>
      </g>
      <!-- ApplicationControllermiddleware_stack -->
      <g id="node12" class="node"><title>ApplicationControllermiddleware_stack</title>
      <ellipse fill="none" stroke="black" cx="669" cy="-203" rx="95.3122" ry="18"/>
      <text text-anchor="middle" x="669" y="-199.3" font-family="Times,serif" font-size="14.00">middleware_stack</text>
      </g>
      <!-- ActionController::Metalinherited&#45;&gt;ApplicationControllermiddleware_stack -->
      <g id="edge19" class="edge"><title>ActionController::Metalinherited&#45;&gt;ApplicationControllermiddleware_stack</title>
      <path fill="none" stroke="dimgrey" d="M519.845,-316.305C549.597,-293.903 604.419,-252.626 638.669,-226.837"/>
      <polygon fill="dimgrey" stroke="dimgrey" points="641.023,-229.446 646.906,-220.635 636.812,-223.854 641.023,-229.446"/>
      </g>
      <!-- UsersControllerget_logger -->
      <g id="node14" class="node"><title>UsersControllerget_logger</title>
      <ellipse fill="none" stroke="black" cx="1657" cy="-203" rx="60.1672" ry="18"/>
      <text text-anchor="middle" x="1657" y="-199.3" font-family="Times,serif" font-size="14.00">get_logger</text>
      </g>
      <!-- DependencyGrapher::Loggerinitialize -->
      <g id="node15" class="node"><title>DependencyGrapher::Loggerinitialize</title>
      <ellipse fill="none" stroke="black" cx="1770" cy="-50" rx="50.5427" ry="18"/>
      <text text-anchor="middle" x="1770" y="-46.3" font-family="Times,serif" font-size="14.00">initialize</text>
      </g>
      <!-- UsersControllerget_logger&#45;&gt;DependencyGrapher::Loggerinitialize -->
      <g id="edge32" class="edge"><title>UsersControllerget_logger&#45;&gt;DependencyGrapher::Loggerinitialize</title>
      <path fill="none" stroke="red" d="M1681.22,-186.515C1690.95,-179.516 1701.77,-170.65 1710,-161 1731.73,-135.504 1749.03,-100.877 1759.36,-77.3302"/>
      <polygon fill="red" stroke="red" points="1762.65,-78.5473 1763.36,-67.9762 1756.21,-75.7976 1762.65,-78.5473"/>
      </g>
      <!-- DependencyGrapher::Loggerenable -->
      <g id="node16" class="node"><title>DependencyGrapher::Loggerenable</title>
      <ellipse fill="none" stroke="black" cx="1660" cy="-50" rx="41.394" ry="18"/>
      <text text-anchor="middle" x="1660" y="-46.3" font-family="Times,serif" font-size="14.00">enable</text>
      </g>
      <!-- UsersControllerget_logger&#45;&gt;DependencyGrapher::Loggerenable -->
      <g id="edge33" class="edge"><title>UsersControllerget_logger&#45;&gt;DependencyGrapher::Loggerenable</title>
      <path fill="none" stroke="red" d="M1657.34,-184.972C1657.85,-159.03 1658.84,-109.357 1659.46,-78.3264"/>
      <polygon fill="red" stroke="red" points="1662.96,-78.2651 1659.66,-68.1975 1655.96,-78.126 1662.96,-78.2651"/>
      </g>
      <!-- DependencyGrapher::Loggerdisable -->
      <g id="node17" class="node"><title>DependencyGrapher::Loggerdisable</title>
      <ellipse fill="none" stroke="black" cx="1556" cy="-50" rx="44.2946" ry="18"/>
      <text text-anchor="middle" x="1556" y="-46.3" font-family="Times,serif" font-size="14.00">disable</text>
      </g>
      <!-- UsersControllerget_logger&#45;&gt;DependencyGrapher::Loggerdisable -->
      <g id="edge34" class="edge"><title>UsersControllerget_logger&#45;&gt;DependencyGrapher::Loggerdisable</title>
      <path fill="none" stroke="red" d="M1634.66,-186.136C1625.9,-179.139 1616.22,-170.376 1609,-161 1589.17,-135.255 1574.08,-100.894 1565.17,-77.4708"/>
      <polygon fill="red" stroke="red" points="1568.37,-76.0256 1561.62,-67.854 1561.8,-78.4474 1568.37,-76.0256"/>
      </g>
      <!-- UserTesttest_dep2 -->
      <g id="node18" class="node"><title>UserTesttest_dep2</title>
      <ellipse fill="none" stroke="black" cx="1653" cy="-333" rx="56.3173" ry="18"/>
      <text text-anchor="middle" x="1653" y="-329.3" font-family="Times,serif" font-size="14.00">test_dep2</text>
      </g>
      <!-- UserTesttest_dep2&#45;&gt;UsersControllerget_logger -->
      <g id="edge35" class="edge"><title>UserTesttest_dep2&#45;&gt;UsersControllerget_logger</title>
      <path fill="none" stroke="dimgrey" d="M1653.54,-314.737C1654.21,-293.361 1655.35,-256.691 1656.14,-231.442"/>
      <polygon fill="dimgrey" stroke="dimgrey" points="1659.64,-231.502 1656.46,-221.398 1652.65,-231.284 1659.64,-231.502"/>
      </g>
      <!-- User::GeneratedAssociationMethodsuser_skills -->
      <g id="node19" class="node"><title>User::GeneratedAssociationMethodsuser_skills</title>
      <ellipse fill="none" stroke="black" cx="2053" cy="-203" rx="60.1672" ry="18"/>
      <text text-anchor="middle" x="2053" y="-199.3" font-family="Times,serif" font-size="14.00">user_skills</text>
      </g>
      <!-- ActiveRecord::Associationsassociation -->
      <g id="node20" class="node"><title>ActiveRecord::Associationsassociation</title>
      <ellipse fill="none" stroke="black" cx="1930" cy="-50" rx="63.0666" ry="18"/>
      <text text-anchor="middle" x="1930" y="-46.3" font-family="Times,serif" font-size="14.00">association</text>
      </g>
      <!-- User::GeneratedAssociationMethodsuser_skills&#45;&gt;ActiveRecord::Associationsassociation -->
      <g id="edge36" class="edge"><title>User::GeneratedAssociationMethodsuser_skills&#45;&gt;ActiveRecord::Associationsassociation</title>
      <path fill="none" stroke="dimgrey" d="M2027.6,-186.537C2017.36,-179.541 2005.88,-170.673 1997,-161 1973.6,-135.526 1954.02,-100.674 1942.18,-77.079"/>
      <polygon fill="dimgrey" stroke="dimgrey" points="1945.28,-75.4594 1937.74,-68.0213 1939,-78.541 1945.28,-75.4594"/>
      </g>
      <!-- ActiveRecord::Associations::CollectionAssociationreader -->
      <g id="node21" class="node"><title>ActiveRecord::Associations::CollectionAssociationreader</title>
      <ellipse fill="none" stroke="black" cx="2053" cy="-50" rx="41.394" ry="18"/>
      <text text-anchor="middle" x="2053" y="-46.3" font-family="Times,serif" font-size="14.00">reader</text>
      </g>
      <!-- User::GeneratedAssociationMethodsuser_skills&#45;&gt;ActiveRecord::Associations::CollectionAssociationreader -->
      <g id="edge37" class="edge"><title>User::GeneratedAssociationMethodsuser_skills&#45;&gt;ActiveRecord::Associations::CollectionAssociationreader</title>
      <path fill="none" stroke="dimgrey" d="M2053,-184.972C2053,-159.03 2053,-109.357 2053,-78.3264"/>
      <polygon fill="dimgrey" stroke="dimgrey" points="2056.5,-78.1975 2053,-68.1975 2049.5,-78.1976 2056.5,-78.1975"/>
      </g>
      <!-- User(id: integer, email: string, name: string, enc...add_skill -->
          <g id="node22" class="node"><title>User(id: integer, email: string, name: string, enc...add_skill</title>
            <ellipse fill="none" stroke="black" cx="2054" cy="-333" rx="51.4931" ry="18"/>
            <text text-anchor="middle" x="2054" y="-329.3" font-family="Times,serif" font-size="14.00">add_skill</text>
            </g>
            <!-- User(id: integer, email: string, name: string, enc...add_skill&#45;&gt;User::GeneratedAssociationMethodsuser_skills -->
              <g id="edge38" class="edge"><title>User(id: integer, email: string, name: string, enc...add_skill&#45;&gt;User::GeneratedAssociationMethodsuser_skills</title>
                <path fill="none" stroke="dimgrey" d="M2053.87,-314.737C2053.7,-293.361 2053.41,-256.691 2053.21,-231.442"/>
                <polygon fill="dimgrey" stroke="dimgrey" points="2056.71,-231.37 2053.14,-221.398 2049.71,-231.425 2056.71,-231.37"/>
                </g>
                <!-- GetLoggercall -->
                <g id="node23" class="node"><title>GetLoggercall</title>
                <ellipse fill="none" stroke="black" cx="1790" cy="-203" rx="26.949" ry="18"/>
                <text text-anchor="middle" x="1790" y="-199.3" font-family="Times,serif" font-size="14.00">call</text>
                </g>
                <!-- GetLoggercall&#45;&gt;DependencyGrapher::Loggerinitialize -->
                <g id="edge39" class="edge"><title>GetLoggercall&#45;&gt;DependencyGrapher::Loggerinitialize</title>
                <path fill="none" stroke="dimgrey" d="M1787.74,-184.972C1784.31,-159.03 1777.73,-109.357 1773.62,-78.3264"/>
                <polygon fill="dimgrey" stroke="dimgrey" points="1777.06,-77.6514 1772.28,-68.1975 1770.12,-78.5706 1777.06,-77.6514"/>
                </g>
                <!-- User(id: integer, email: string, name: string, enc...get_logger -->
                  <g id="node24" class="node"><title>User(id: integer, email: string, name: string, enc...get_logger</title>
                    <ellipse fill="none" stroke="black" cx="1794" cy="-333" rx="60.1672" ry="18"/>
                    <text text-anchor="middle" x="1794" y="-329.3" font-family="Times,serif" font-size="14.00">get_logger</text>
                    </g>
                    <!-- User(id: integer, email: string, name: string, enc...get_logger&#45;&gt;GetLoggercall -->
                      <g id="edge40" class="edge"><title>User(id: integer, email: string, name: string, enc...get_logger&#45;&gt;GetLoggercall</title>
                        <path fill="none" stroke="dimgrey" d="M1793.46,-314.737C1792.79,-293.361 1791.65,-256.691 1790.86,-231.442"/>
                        <polygon fill="dimgrey" stroke="dimgrey" points="1794.35,-231.284 1790.54,-221.398 1787.36,-231.502 1794.35,-231.284"/>
                        </g>
                        <!-- User::GeneratedAssociationMethodsskills -->
                        <g id="node25" class="node"><title>User::GeneratedAssociationMethodsskills</title>
                        <ellipse fill="none" stroke="black" cx="1930" cy="-203" rx="35.1455" ry="18"/>
                        <text text-anchor="middle" x="1930" y="-199.3" font-family="Times,serif" font-size="14.00">skills</text>
                        </g>
                        <!-- User::GeneratedAssociationMethodsskills&#45;&gt;ActiveRecord::Associationsassociation -->
                        <g id="edge41" class="edge"><title>User::GeneratedAssociationMethodsskills&#45;&gt;ActiveRecord::Associationsassociation</title>
                        <path fill="none" stroke="dimgrey" d="M1930,-184.972C1930,-159.03 1930,-109.357 1930,-78.3264"/>
                        <polygon fill="dimgrey" stroke="dimgrey" points="1933.5,-78.1975 1930,-68.1975 1926.5,-78.1976 1933.5,-78.1975"/>
                        </g>
                        <!-- User::GeneratedAssociationMethodsskills&#45;&gt;ActiveRecord::Associations::CollectionAssociationreader -->
                        <g id="edge42" class="edge"><title>User::GeneratedAssociationMethodsskills&#45;&gt;ActiveRecord::Associations::CollectionAssociationreader</title>
                        <path fill="none" stroke="dimgrey" d="M1950.19,-188.238C1960.1,-181.86 1972.38,-174.494 1984,-169 1993.78,-164.374 1999.12,-168.415 2007,-161 2030.62,-138.789 2042.55,-102.581 2048.26,-77.817"/>
                        <polygon fill="dimgrey" stroke="dimgrey" points="2051.7,-78.4867 2050.34,-67.9788 2044.85,-77.038 2051.7,-78.4867"/>
                        </g>
                        <!-- User(id: integer, email: string, name: string, enc...has_skill? -->
                          <g id="node26" class="node"><title>User(id: integer, email: string, name: string, enc...has_skill?</title>
                            <ellipse fill="none" stroke="black" cx="1928" cy="-333" rx="55.3436" ry="18"/>
                            <text text-anchor="middle" x="1928" y="-329.3" font-family="Times,serif" font-size="14.00">has_skill?</text>
                            </g>
                            <!-- User(id: integer, email: string, name: string, enc...has_skill?&#45;&gt;User::GeneratedAssociationMethodsskills -->
                              <g id="edge43" class="edge"><title>User(id: integer, email: string, name: string, enc...has_skill?&#45;&gt;User::GeneratedAssociationMethodsskills</title>
                                <path fill="none" stroke="dimgrey" d="M1928.27,-314.737C1928.6,-293.361 1929.18,-256.691 1929.57,-231.442"/>
                                <polygon fill="dimgrey" stroke="dimgrey" points="1933.07,-231.451 1929.73,-221.398 1926.07,-231.342 1933.07,-231.451"/>
                                </g>
                                </g>
                                </svg>
